<?xml version="1.0" standalone="no"?>
<!DOCTYPE svg PUBLIC "-//W3C//DTD SVG 20010904//EN"
 "http://www.w3.org/TR/2001/REC-SVG-20010904/DTD/svg10.dtd">
<svg version="1.0" xmlns="http://www.w3.org/2000/svg"
 width="150pt" height="150pt" viewBox="0 0 500.000000 500.000000"
 preserveAspectRatio="xMidYMid meet">

<g transform="translate(0.000000,500.000000) scale(0.100000,-0.100000)"
fill="#000000" stroke="none">
<path d="M1573 3911 c-23 -11 -47 -30 -55 -43 -20 -36 -19 -1263 2 -1302 34
-64 -14 -61 965 -64 977 -3 951 -4 992 56 17 25 18 65 21 647 2 576 1 623 -15
655 -38 74 17 70 -978 70 -852 0 -892 -1 -932 -19z m1861 -42 c25 -19 26 -25
26 -110 l0 -89 -960 0 -960 0 0 85 c0 78 2 88 25 110 l24 25 909 0 c905 0 909
0 936 -21z m26 -753 c0 -283 -3 -522 -6 -531 -18 -45 -8 -45 -954 -45 -658 0
-897 3 -913 12 -47 25 -46 15 -47 561 l0 517 960 0 960 0 0 -514z"/>
<path d="M1822 3824 c-46 -32 -18 -114 39 -114 46 0 75 42 59 84 -16 44 -60
57 -98 30z m66 -52 c4 -28 -24 -40 -45 -19 -21 21 -9 49 19 45 15 -2 24 -11
26 -26z"/>
<path d="M1657 3812 c-18 -19 -22 -59 -9 -78 39 -59 133 -17 116 51 -11 45
-76 61 -107 27z m70 -28 c3 -8 -2 -23 -11 -32 -15 -15 -17 -15 -32 0 -21 21
-11 48 16 48 11 0 23 -7 27 -16z"/>
<path d="M1976 3811 c-25 -27 -17 -70 17 -95 26 -19 30 -19 55 -5 62 34 47
119 -22 119 -20 0 -40 -8 -50 -19z m72 -39 c4 -29 -26 -42 -44 -18 -17 24 -6
48 20 44 13 -2 22 -12 24 -26z"/>
<path d="M2185 3193 c-47 -53 -85 -102 -85 -108 0 -13 169 -205 180 -205 5 0
12 5 15 11 6 9 -22 44 -137 174 -17 20 -16 23 62 112 44 50 80 96 80 102 0 30
-37 2 -115 -86z"/>
<path d="M2484 3094 c-87 -182 -98 -214 -73 -214 11 0 199 373 199 395 0 8 -7
15 -16 15 -10 0 -47 -65 -110 -196z"/>
<path d="M2706 3281 c-4 -5 30 -51 74 -101 71 -81 80 -94 68 -109 -8 -9 -45
-51 -82 -93 -62 -71 -74 -99 -43 -97 15 0 171 181 175 202 3 16 -152 200 -174
205 -7 2 -15 -1 -18 -7z"/>
<path d="M2240 2180 c0 -60 4 -100 10 -100 6 0 10 40 10 100 0 60 -4 100 -10
100 -6 0 -10 -40 -10 -100z"/>
<path d="M3260 2230 c0 -47 -1 -49 -19 -38 -48 30 -100 -37 -67 -87 14 -21 23
-24 61 -23 l45 2 0 98 c0 59 -4 98 -10 98 -5 0 -10 -23 -10 -50z m-2 -87 c2
-24 -2 -34 -17 -43 -31 -16 -61 3 -61 39 0 36 8 43 45 39 26 -3 30 -8 33 -35z"/>
<path d="M1686 2229 c-15 -18 -26 -43 -26 -61 0 -39 48 -88 87 -88 31 0 73 24
73 42 0 7 -7 5 -17 -4 -42 -35 -89 -29 -119 16 -43 67 42 145 106 97 39 -28
49 -27 20 4 -35 37 -90 35 -124 -6z"/>
<path d="M2596 2229 c-31 -37 -33 -63 -6 -106 32 -52 108 -54 147 -4 23 30 15
41 -29 39 l-43 -1 38 -4 c32 -4 36 -7 27 -23 -12 -22 -64 -42 -88 -33 -35 12
-52 36 -52 73 0 72 76 105 127 54 14 -14 27 -23 30 -20 3 3 -6 16 -20 30 -39
39 -97 36 -131 -5z"/>
<path d="M2300 2230 c0 -5 5 -10 10 -10 6 0 10 5 10 10 0 6 -4 10 -10 10 -5 0
-10 -4 -10 -10z"/>
<path d="M2790 2229 c0 -5 5 -7 10 -4 6 3 10 8 10 11 0 2 -4 4 -10 4 -5 0 -10
-5 -10 -11z"/>
<path d="M3320 2230 c0 -5 5 -10 10 -10 6 0 10 5 10 10 0 6 -4 10 -10 10 -5 0
-10 -4 -10 -10z"/>
<path d="M1877 2182 c-35 -38 -9 -102 40 -102 47 0 71 71 35 103 -24 22 -55
21 -75 -1z m77 -24 c14 -23 -3 -52 -33 -56 -42 -6 -67 38 -39 66 17 17 58 11
72 -10z"/>
<path d="M2013 2140 c0 -45 2 -52 4 -23 3 29 11 47 25 58 12 8 19 18 15 21 -4
4 -13 2 -21 -5 -11 -9 -15 -9 -19 1 -3 7 -5 -16 -4 -52z"/>
<path d="M2100 2180 c-24 -24 -25 -48 -5 -78 13 -17 24 -21 60 -20 l45 2 0 54
c0 44 -3 53 -15 49 -8 -4 -17 -2 -20 3 -10 17 -44 11 -65 -10z m78 -37 c2 -24
-2 -34 -17 -43 -31 -16 -61 3 -61 39 0 36 8 43 45 39 26 -3 30 -8 33 -35z"/>
<path d="M2377 2182 c-10 -10 -17 -30 -17 -44 0 -47 62 -77 90 -43 10 12 7 13
-22 9 -24 -4 -38 -1 -47 10 -12 14 -8 16 38 16 43 0 51 3 51 18 0 24 -31 52
-57 52 -11 0 -27 -8 -36 -18z m78 -22 c4 -6 -12 -10 -42 -10 l-48 1 23 19 c24
20 51 15 67 -10z"/>
<path d="M2793 2140 c0 -36 2 -50 4 -32 2 17 2 47 0 65 -2 17 -4 3 -4 -33z"/>
<path d="M2873 2193 c-21 -4 -23 -10 -23 -59 0 -30 5 -54 10 -54 6 0 10 21 10
46 0 37 4 47 20 51 18 5 30 25 13 22 -5 -1 -18 -4 -30 -6z"/>
<path d="M2947 2182 c-23 -25 -21 -65 4 -87 17 -16 25 -17 49 -8 21 8 30 8 34
-1 2 -6 5 18 5 54 0 36 -3 60 -7 53 -5 -8 -13 -9 -22 -3 -23 15 -45 12 -63 -8z
m77 -24 c12 -20 2 -44 -27 -62 -19 -12 -57 17 -57 44 0 40 62 53 84 18z"/>
<path d="M3093 2140 c0 -45 2 -52 4 -23 3 29 11 47 25 58 12 8 19 18 15 21 -4
4 -13 2 -21 -5 -11 -9 -15 -9 -19 1 -3 7 -5 -16 -4 -52z"/>
<path d="M2300 2135 c0 -30 5 -55 10 -55 6 0 10 25 10 55 0 30 -4 55 -10 55
-5 0 -10 -25 -10 -55z"/>
<path d="M3320 2135 c0 -30 5 -55 10 -55 6 0 10 25 10 55 0 30 -4 55 -10 55
-5 0 -10 -25 -10 -55z"/>
<path d="M1436 1935 c-11 -8 -17 -17 -14 -21 8 -8 48 14 48 26 0 14 -12 12
-34 -5z"/>
<path d="M1250 1855 l0 -85 35 0 c50 0 75 28 75 85 0 57 -25 85 -75 85 l-35 0
0 -85z m84 39 c19 -49 2 -94 -35 -94 -28 0 -29 1 -29 55 0 54 1 55 29 55 17 0
31 -6 35 -16z"/>
<path d="M1850 1925 c0 -8 7 -15 15 -15 12 0 15 -13 15 -55 0 -42 -3 -55 -15
-55 -8 0 -15 -7 -15 -15 0 -11 11 -15 40 -15 29 0 40 4 40 15 0 8 -7 15 -15
15 -12 0 -15 14 -15 70 0 68 -1 70 -25 70 -16 0 -25 -6 -25 -15z"/>
<path d="M3050 1915 c0 -16 -6 -25 -15 -25 -8 0 -15 -7 -15 -15 0 -8 7 -15 15
-15 10 0 15 -10 15 -29 0 -31 22 -61 44 -61 17 0 51 38 42 47 -4 4 -11 1 -15
-6 -14 -22 -46 -8 -49 22 -3 23 0 27 22 27 16 0 26 6 26 15 0 9 -9 15 -25 15
-20 0 -25 5 -25 25 0 14 -4 25 -10 25 -5 0 -10 -11 -10 -25z"/>
<path d="M3320 1919 c0 -40 22 -149 30 -149 10 0 20 26 20 51 0 10 5 19 10 19
6 0 10 -10 10 -22 0 -25 16 -56 24 -47 5 5 26 124 26 152 0 32 -20 17 -21 -15
-1 -18 -5 -44 -9 -58 -8 -25 -8 -25 -15 8 -4 17 -11 32 -15 32 -5 0 -12 -15
-16 -32 -6 -29 -8 -30 -15 -13 -4 11 -8 34 -8 52 -1 36 -21 57 -21 22z"/>
<path d="M3632 1855 c-1 -57 2 -85 7 -76 8 12 12 12 25 2 36 -30 76 17 62 73
-7 29 -41 43 -61 26 -16 -13 -20 -7 -28 40 -2 14 -5 -15 -5 -65z m73 -25 c0
-20 -6 -26 -28 -28 -18 -2 -29 2 -33 12 -11 28 4 48 33 44 22 -2 28 -8 28 -28z"/>
<path d="M1412 1874 c-52 -36 -5 -120 56 -98 36 13 28 29 -12 26 -19 -2 -37 1
-41 7 -4 7 11 11 44 11 28 0 51 2 51 5 0 19 -26 54 -44 59 -29 8 -29 8 -54
-10z m56 -21 c-10 -2 -28 -2 -40 0 -13 2 -5 4 17 4 22 1 32 -1 23 -4z"/>
<path d="M1562 1830 c12 -33 27 -60 34 -60 6 0 21 25 33 56 24 64 24 64 12 64
-5 0 -15 -17 -21 -37 -18 -57 -25 -58 -44 -8 -26 68 -39 54 -14 -15z"/>
<path d="M1712 1874 c-52 -36 -5 -120 56 -98 36 13 28 29 -12 26 -19 -2 -37 1
-41 7 -4 7 11 11 44 11 57 0 63 9 26 45 -28 29 -42 31 -73 9z m56 -21 c-10 -2
-28 -2 -40 0 -13 2 -5 4 17 4 22 1 32 -1 23 -4z"/>
<path d="M2000 1870 c-11 -11 -20 -29 -20 -40 0 -25 34 -60 58 -60 32 0 62 29
62 60 0 53 -62 78 -100 40z m75 -40 c0 -21 -5 -26 -33 -28 -22 -2 -34 2 -38
12 -12 30 4 47 38 44 28 -2 33 -7 33 -28z"/>
<path d="M2140 1805 c0 -50 4 -85 10 -85 6 0 10 16 10 36 0 31 2 35 15 24 33
-27 82 19 71 66 -8 32 -49 52 -71 34 -10 -8 -15 -9 -15 -1 0 6 -4 11 -10 11
-6 0 -10 -35 -10 -85z m84 40 c10 -26 -5 -45 -35 -45 -26 0 -29 4 -29 30 0 26
3 30 29 30 16 0 31 -6 35 -15z"/>
<path d="M2290 1805 c0 -50 4 -85 10 -85 6 0 10 16 10 35 0 33 2 35 20 25 42
-22 85 33 61 78 -14 26 -48 37 -66 22 -11 -9 -15 -9 -15 -1 0 6 -4 11 -10 11
-6 0 -10 -35 -10 -85z m84 40 c10 -26 -5 -45 -35 -45 -26 0 -29 4 -29 30 0 26
3 30 29 30 16 0 31 -6 35 -15z"/>
<path d="M2452 1874 c-52 -36 -5 -120 56 -98 36 13 28 29 -12 26 -19 -2 -37 1
-41 7 -4 7 11 11 44 11 28 0 51 2 51 5 0 19 -26 54 -44 59 -29 8 -29 8 -54
-10z m56 -21 c-10 -2 -28 -2 -40 0 -13 2 -5 4 17 4 22 1 32 -1 23 -4z"/>
<path d="M2580 1830 c0 -33 4 -60 10 -60 6 0 10 20 10 45 0 33 4 45 15 45 11
0 15 -12 15 -45 0 -25 5 -45 10 -45 6 0 10 20 10 45 0 25 5 45 10 45 6 0 10
-20 10 -45 0 -25 5 -45 10 -45 14 0 13 107 -1 116 -6 3 -15 0 -20 -7 -6 -11
-11 -11 -20 -2 -9 9 -16 10 -26 2 -9 -8 -13 -8 -13 0 0 6 -4 11 -10 11 -6 0
-10 -27 -10 -60z"/>
<path d="M2752 1874 c-52 -36 -5 -120 56 -98 36 13 28 29 -12 26 -19 -2 -37 1
-41 7 -4 7 11 11 44 11 57 0 63 9 26 45 -28 29 -42 31 -73 9z m56 -21 c-10 -2
-28 -2 -40 0 -13 2 -5 4 17 4 22 1 32 -1 23 -4z"/>
<path d="M2880 1830 c0 -65 17 -83 22 -24 6 71 68 74 68 4 0 -22 5 -40 10 -40
6 0 10 15 10 33 0 74 -24 100 -66 72 -21 -14 -24 -14 -24 0 0 8 -4 15 -10 15
-6 0 -10 -27 -10 -60z"/>
<path d="M3492 1874 c-52 -36 -5 -120 56 -98 36 13 28 29 -12 26 -19 -2 -37 1
-41 7 -4 7 11 11 44 11 28 0 51 2 51 5 0 19 -26 54 -44 59 -29 8 -29 8 -54
-10z m56 -21 c-10 -2 -28 -2 -40 0 -13 2 -5 4 17 4 22 1 32 -1 23 -4z"/>
</g>
</svg>
